<svg version="1.1" id="Layer_1" xmlns="http://www.w3.org/2000/svg" xmlns:xlink="http://www.w3.org/1999/xlink" x="0px" y="0px"
	 width="100%" viewBox="0 0 497 355" enable-background="new 0 0 497 355" xml:space="preserve">
<path fill="#FEFFFF" opacity="1.000000" stroke="none" 
	d="
M311.000000,356.000000 
	C207.333344,356.000000 104.166695,356.000000 1.000028,356.000000 
	C1.000018,237.666687 1.000018,119.333389 1.000009,1.000059 
	C166.666611,1.000040 332.333221,1.000040 497.999878,1.000020 
	C497.999939,119.333275 497.999939,237.666550 497.999969,355.999908 
	C435.833344,356.000000 373.666656,356.000000 311.000000,356.000000 
M323.619537,118.637527 
	C323.070648,121.088493 322.521729,123.539467 322.003723,125.993294 
	C322.003723,125.993294 321.979279,125.972176 321.488342,126.469452 
	C320.978333,126.366707 320.290619,126.438156 319.989319,126.130821 
	C318.741821,124.858360 317.644684,122.436852 316.428925,122.397552 
	C315.022034,122.352081 313.516968,124.327682 312.112946,125.496010 
	C310.721985,126.653412 309.156097,129.121124 308.093842,128.906021 
	C301.248322,127.519836 297.723938,132.075058 293.770477,136.083908 
	C290.262177,139.641327 286.432739,142.921387 283.250305,146.744461 
	C281.626160,148.695602 280.249207,151.562729 280.228149,154.028351 
	C280.016327,178.843002 280.108521,203.660263 280.118042,228.476791 
	C280.118469,229.642426 279.865936,230.908417 280.237885,231.946030 
	C280.625549,233.027466 281.627594,233.888641 282.361023,234.846115 
	C283.172607,233.966141 284.334198,233.210831 284.703705,232.173386 
	C285.127655,230.983093 284.871826,229.542694 284.872833,228.210922 
	C284.887360,209.390335 285.887299,190.500854 284.586121,171.771317 
	C283.573303,157.192413 287.109009,145.895004 299.101166,137.458466 
	C300.571045,136.424423 302.036469,134.068619 303.261932,134.224777 
	C309.350037,135.000549 313.987488,131.936020 318.890656,129.357315 
	C318.960632,129.320526 319.633942,130.430954 319.557770,131.516830 
	C316.896301,138.149719 313.416382,144.581207 311.725494,151.452911 
	C306.474792,172.791763 308.370850,192.712540 325.456299,208.882584 
	C354.777771,183.900269 370.154938,135.947083 348.365417,91.654129 
	C327.191132,48.611832 278.779572,26.557539 233.032822,39.448074 
	C188.497711,51.997196 157.509552,93.360062 160.513641,140.971725 
	C164.056015,197.114731 207.820770,227.375092 240.948837,232.334000 
	C241.303909,229.015015 242.575195,225.478439 241.830719,222.434921 
	C240.019775,215.031647 237.104721,207.906509 234.960159,200.574051 
	C233.438766,195.372269 230.500305,193.499023 225.031464,193.937546 
	C218.278503,194.479019 211.441193,194.365067 204.663361,194.045715 
	C200.818787,193.864548 198.202728,191.282791 197.555664,187.403534 
	C196.614258,181.759521 197.686371,175.649582 193.443390,170.809662 
	C193.186310,170.516403 193.338837,169.853745 193.321472,169.362244 
	C193.152618,164.577469 193.195328,159.770477 192.689331,155.021866 
	C192.547592,153.691650 190.978210,152.281372 189.728363,151.365356 
	C188.423920,150.409317 186.702515,150.033020 185.185013,149.354919 
	C179.303772,146.726807 178.463028,144.429626 181.598511,138.932343 
	C184.814880,133.293274 188.657425,127.954720 191.314804,122.072990 
	C193.146194,118.019440 194.608093,113.149620 194.187515,108.844650 
	C192.675735,93.369728 199.301270,81.136787 208.287628,69.649048 
	C209.031311,68.698364 210.743454,68.505280 212.219177,68.694122 
	C210.529205,71.220985 210.930222,73.323524 213.267258,75.770287 
	C211.492249,77.196541 209.717239,78.622795 207.942215,80.049049 
	C209.482529,81.684044 210.976990,83.365608 212.576370,84.940643 
	C214.107803,86.448784 215.680328,87.932053 217.363159,89.264069 
	C218.611847,90.252464 220.045441,91.670517 221.431992,91.711845 
	C229.320389,91.946930 237.219406,91.825783 245.997757,91.825783 
	C244.883133,90.395889 244.432175,89.772362 243.935699,89.187462 
	C239.581802,84.058105 235.319321,78.844360 230.775131,73.889114 
	C229.879074,72.912003 227.752548,72.367950 226.444092,72.678856 
	C225.347931,72.939323 223.800369,74.833473 223.916275,75.834854 
	C224.090912,77.343536 225.285202,78.996239 226.503799,80.066597 
	C228.918655,82.187691 231.646286,83.952652 234.244644,85.864815 
	C220.327927,87.591515 220.100922,87.463951 214.369095,76.112831 
	C215.103546,75.784462 215.839752,75.455307 217.241364,75.124649 
	C217.938110,74.252853 218.837769,73.476456 219.299591,72.494209 
	C223.023605,64.573479 226.866913,63.863918 233.017960,70.009659 
	C243.834412,80.816788 254.664597,91.610161 265.461182,102.381538 
	C273.562653,96.432045 279.964447,89.938599 277.678528,78.810944 
	C277.153381,76.254639 277.291626,73.453537 277.669006,70.843819 
	C278.369415,66.000366 276.710205,62.171562 272.754333,59.755299 
	C269.934723,58.033073 266.601837,56.952175 263.354736,56.221584 
	C261.950653,55.905659 259.669159,56.771534 258.752197,57.891479 
	C258.052795,58.745655 258.313934,61.464752 259.163025,62.234741 
	C260.219513,63.192844 262.522339,63.636879 263.934662,63.189877 
	C269.373718,61.468414 272.816345,63.717312 272.900635,69.537636 
	C272.958496,73.533173 272.446167,77.598320 273.017029,81.511505 
	C274.009003,88.311127 270.609528,92.359940 265.162628,96.087158 
	C263.415955,94.169365 261.813049,92.245476 260.041443,90.492027 
	C251.419708,81.958595 242.752838,73.470772 234.384827,64.209236 
	C236.457077,63.801464 238.524002,63.110840 240.603180,63.071857 
	C242.395218,63.038258 244.845032,63.132240 245.893280,64.230255 
	C251.435791,70.035843 256.555664,76.242729 262.007385,82.139168 
	C262.963348,83.173141 264.864502,83.960472 266.210785,83.809074 
	C267.300110,83.686577 268.899109,82.060127 269.026031,80.957405 
	C269.181427,79.607109 268.422607,77.686279 267.390839,76.743492 
	C262.336212,72.124779 256.502930,68.240417 252.013107,63.153618 
	C247.249939,57.757107 241.413116,56.599049 235.247742,55.292171 
	C238.503174,54.599957 241.743301,53.823692 245.016373,53.228420 
	C281.043457,46.676144 312.595978,64.712982 322.955780,92.698242 
	C323.322174,93.767395 323.688568,94.836548 324.005096,95.955063 
	C324.005096,95.955063 324.071259,95.978516 324.020966,96.919289 
	C324.022888,103.948021 324.024811,110.976753 323.993713,118.013756 
	C323.993713,118.013756 324.020416,118.035278 323.619537,118.637527 
M206.597458,97.702065 
	C204.734634,98.460709 202.614243,98.907585 201.134567,100.130013 
	C200.534805,100.625496 200.961456,103.852036 201.551804,104.061935 
	C205.935287,105.620522 208.527420,110.405022 214.063431,110.101631 
	C222.536316,109.637291 231.055939,109.872543 239.549789,110.068123 
	C241.341537,110.109375 243.516022,110.810951 244.811020,111.984291 
	C249.127808,115.895515 253.234238,120.059090 257.177490,124.349991 
	C258.348297,125.623993 258.715973,127.636101 259.451630,129.309998 
	C258.811584,129.746063 258.171539,130.182114 257.531464,130.618179 
	C256.360199,129.012558 255.166260,127.422928 254.021484,125.798637 
	C248.327225,117.719315 240.667648,114.455521 230.867325,116.130760 
	C228.359543,116.559433 226.066696,116.452522 225.123154,113.094803 
	C224.843597,112.100006 222.479996,111.117462 221.119888,111.180229 
	C220.022461,111.230881 218.302200,112.743744 218.117477,113.823357 
	C217.887070,115.170082 218.527100,117.504387 219.535477,118.058830 
	C222.032700,119.431900 225.145981,121.177040 227.671234,120.751579 
	C239.405685,118.774536 247.824585,123.493973 254.526154,132.549225 
	C254.918472,133.079315 255.405426,133.570938 255.935638,133.962128 
	C258.756104,136.043015 259.376709,138.812454 259.361847,142.239777 
	C259.237640,170.901031 259.284882,199.563034 259.292847,228.224823 
	C259.293274,229.720718 259.130371,231.304550 259.568237,232.680466 
	C259.844482,233.548508 261.117096,234.664932 261.906891,234.637482 
	C262.628479,234.612411 263.640381,233.297882 263.913055,232.371674 
	C264.276093,231.138565 264.068207,229.731186 264.069336,228.398651 
	C264.092804,201.235275 264.135498,174.071884 264.114563,146.908539 
	C264.108795,139.423309 265.920990,131.094910 263.234955,124.689987 
	C260.543762,118.272865 253.428101,113.608223 247.919769,108.535934 
	C246.180710,106.934540 243.401062,105.748543 241.047592,105.656837 
	C232.395081,105.319641 223.721481,105.502586 215.055954,105.529091 
	C210.592575,105.542740 208.142242,103.777214 209.709900,99.041245 
	C212.060791,99.956909 214.386398,101.576981 216.767090,101.662430 
	C225.578568,101.978661 234.415329,101.594582 243.226303,101.917946 
	C245.578232,102.004257 248.371307,103.128197 250.100830,104.714523 
	C255.724716,109.872780 260.949768,115.465881 266.212585,120.774826 
	C269.295532,118.469368 272.222595,116.591148 274.733063,114.263618 
	C275.877319,113.202721 276.859039,111.172714 276.681091,109.734940 
	C276.542999,108.619194 274.295044,106.777992 273.333832,106.973618 
	C271.748688,107.296211 270.253571,108.836388 269.083710,110.179665 
	C268.143677,111.259041 267.741425,112.806778 266.782379,114.811913 
	C261.716064,109.657425 257.168793,105.271248 252.918732,100.613831 
	C250.497513,97.960556 247.967255,96.757973 244.263138,96.900055 
	C236.284393,97.206100 228.261765,96.612762 220.302841,97.113899 
	C213.864059,97.519310 210.692917,94.229683 208.023087,89.173172 
	C207.270966,87.748672 205.151489,86.286217 203.642242,86.268333 
	C202.490692,86.254677 200.291245,88.589066 200.395386,89.707878 
	C200.536789,91.227211 202.353592,92.656242 203.598297,93.987000 
	C204.642593,95.103523 205.896713,96.023796 206.597458,97.702065 
M290.824646,112.822159 
	C290.659210,112.673233 290.493744,112.524300 290.701294,111.826324 
	C291.504120,110.983276 292.196167,109.984344 293.127625,109.322220 
	C299.693085,104.655205 302.364960,98.451302 301.074738,90.440247 
	C300.827942,88.907799 301.615997,87.236389 301.673798,85.620041 
	C301.743103,83.682594 302.082001,81.434242 301.236053,79.915527 
	C300.791748,79.117920 297.061371,78.916138 296.582703,79.630257 
	C295.596832,81.100967 295.358765,83.421272 295.588898,85.296761 
	C296.455353,92.357803 297.864319,99.069923 291.136658,104.768211 
	C284.427948,110.450462 278.523834,117.099503 272.442688,123.491852 
	C271.199982,124.798157 270.027313,126.844193 270.020599,128.553925 
	C269.887115,162.687057 269.906464,196.820969 270.026642,230.954254 
	C270.031189,232.245819 271.356720,233.532745 272.066650,234.821823 
	C272.931671,233.452438 273.966644,232.155853 274.596161,230.685623 
	C274.957642,229.841385 274.661591,228.715622 274.661591,227.716583 
	C274.661652,203.406662 274.729919,179.096359 274.590179,154.787247 
	C274.568542,151.029984 275.522705,148.280045 278.286377,145.597336 
	C288.320862,135.856812 298.051575,125.804207 307.991974,115.965385 
	C312.007141,111.991219 316.624603,108.455132 315.214111,101.757774 
	C315.122620,101.323227 315.319733,100.729424 315.576385,100.336197 
	C317.113342,97.981140 317.748383,95.518402 314.941223,93.890564 
	C313.799591,93.228554 310.767151,93.429955 310.576630,93.956062 
	C309.893494,95.842667 310.055969,98.035973 309.901978,100.113571 
	C309.713776,102.652298 310.439911,105.854202 309.167542,107.602814 
	C305.693451,112.377213 301.376984,116.538666 297.394165,120.942909 
	C297.335175,120.211334 297.276184,119.479767 297.217194,118.748192 
	C295.238129,116.935684 293.259033,115.123177 290.824646,112.822159 
M289.149292,296.391083 
	C293.959381,280.889984 287.309113,268.053864 271.701447,265.834137 
	C260.598328,264.255066 249.117477,265.247772 237.807968,265.363007 
	C236.898026,265.372284 235.234665,267.475647 235.225937,268.615906 
	C235.066193,289.440430 235.055969,310.266968 235.229675,331.091248 
	C235.240021,332.331116 236.953781,334.485199 238.065598,334.618103 
	C241.799789,335.064362 245.620361,334.787659 250.022400,334.787659 
	C250.022400,326.328308 250.022400,318.431671 250.022400,310.670807 
	C259.322906,308.909821 259.740143,309.034851 263.708130,315.933411 
	C266.693787,321.124115 269.481842,326.428772 272.488586,331.606781 
	C273.186646,332.808929 274.364746,334.531586 275.410400,334.596832 
	C280.435181,334.910309 285.490265,334.737732 291.319397,334.737732 
	C285.858276,325.375519 280.969635,316.994751 276.884338,309.991180 
	C281.360901,305.177856 285.114105,301.142303 289.149292,296.391083 
M212.054779,282.283752 
	C213.417252,283.130096 214.779709,283.976471 216.246841,284.887848 
	C218.978531,281.154938 221.497711,277.712433 223.973969,274.328583 
	C212.230698,263.269623 194.324615,260.886688 181.131393,268.538025 
	C174.990585,272.099365 171.396194,277.558472 171.147507,284.781372 
	C170.806244,294.692291 176.963867,301.697479 188.482590,304.877899 
	C194.398575,306.511383 200.389465,307.930176 206.191879,309.901215 
	C211.191513,311.599579 211.915497,316.824341 207.616791,319.895416 
	C205.847824,321.159180 203.394485,321.811066 201.179214,322.043549 
	C192.056427,323.000793 184.251404,319.722961 177.142197,313.266846 
	C175.377289,315.586731 173.832626,317.468262 172.450607,319.462555 
	C168.758850,324.789886 168.860779,325.509674 174.502960,329.142181 
	C185.470901,336.203583 197.328430,337.776215 209.760818,334.086365 
	C220.119614,331.011993 225.533813,323.993164 225.961975,313.845703 
	C226.308029,305.644470 221.654449,299.306793 212.086731,295.176727 
	C209.966248,294.261383 207.700439,293.663574 205.472382,293.020660 
	C200.849670,291.686737 196.204773,290.429901 191.574112,289.123230 
	C188.600525,288.284149 186.351456,286.872742 186.879471,283.211273 
	C187.413193,279.510468 190.117218,278.285828 193.238876,278.005585 
	C199.664993,277.428711 205.840469,278.419617 212.054779,282.283752 
M316.055847,281.734741 
	C315.951599,278.173523 318.605042,278.922974 320.623047,278.913269 
	C330.229736,278.867035 339.836761,278.892578 349.598267,278.892578 
	C349.598267,274.010681 349.598267,269.811676 349.598267,265.183289 
	C334.230530,265.183289 319.264648,265.101593 304.304352,265.350891 
	C303.203461,265.369232 301.214020,267.766418 301.201569,269.072632 
	C301.004272,289.730286 301.040314,310.390472 301.124695,331.049652 
	C301.129333,332.190674 301.951019,334.273773 302.512909,334.316040 
	C306.632751,334.625885 310.857666,334.937042 314.861816,334.211823 
	C315.667175,334.065948 315.938202,329.500702 315.993042,326.963074 
	C316.142487,320.048615 316.044434,313.128876 316.044434,305.683594 
	C327.521362,305.683594 338.107697,305.683594 349.107880,305.683594 
	C349.107880,302.481842 348.943970,299.828339 349.149628,297.203796 
	C349.402954,293.971497 348.234894,292.758820 344.910309,292.874878 
	C338.753296,293.089813 332.582703,292.994598 326.419006,292.923584 
	C314.499603,292.786224 316.199921,294.617645 316.055847,281.734741 
M295.410614,163.535172 
	C295.410706,162.702011 295.410553,161.868866 295.410919,161.035706 
	C295.414581,152.368332 295.404602,152.454712 304.066345,153.457626 
	C305.273438,153.597397 307.106812,152.721909 307.791412,151.725998 
	C308.456238,150.758865 308.573456,148.612106 307.920197,147.744949 
	C307.099060,146.654922 305.270508,145.877945 303.839142,145.814728 
	C302.306488,145.747040 300.759460,146.932343 299.167816,147.107071 
	C293.323761,147.748581 290.835907,150.409515 290.836304,156.429825 
	C290.837891,180.757767 290.853546,205.085709 290.867004,229.413651 
	C290.867554,230.412811 290.632843,231.520706 290.986328,232.381378 
	C291.361969,233.296066 292.308380,233.976364 293.005524,234.759003 
	C293.772461,234.008148 294.910889,233.381943 295.214966,232.475769 
	C295.619995,231.268661 295.405701,229.843719 295.406097,228.512329 
	C295.412231,207.183701 295.410156,185.855087 295.410614,163.535172 
M284.992065,67.439583 
	C284.152222,69.058334 282.559174,70.701584 282.610840,72.291351 
	C282.779755,77.485733 283.541962,82.661278 284.087616,87.842850 
	C284.603455,92.741745 283.657196,96.570488 278.147522,98.314056 
	C277.081573,98.651398 276.901459,101.788033 276.312714,103.633377 
	C278.158844,104.147156 281.245819,105.575935 281.650696,105.026901 
	C284.373169,101.334999 287.686401,97.470947 288.600464,93.191139 
	C290.090454,86.214905 289.977814,78.883003 290.369110,71.691803 
	C290.535522,68.633728 288.723694,67.178055 284.992065,67.439583 
z"/>
<path fill="#1492CC" opacity="1.000000" stroke="none" 
	d="
M322.990234,92.004341 
	C312.595978,64.712982 281.043457,46.676144 245.016373,53.228420 
	C241.743301,53.823692 238.503174,54.599957 235.146637,55.655071 
	C235.045517,56.017971 235.039337,55.956448 234.648102,55.823875 
	C227.494263,58.614616 220.688950,61.446377 214.015167,64.560074 
	C213.015518,65.026474 212.632309,66.814178 211.984894,67.996918 
	C212.005859,68.003181 212.005630,67.960190 212.005630,67.960190 
	C210.743454,68.505280 209.031311,68.698364 208.287628,69.649048 
	C199.301270,81.136787 192.675735,93.369728 194.187515,108.844650 
	C194.608093,113.149620 193.146194,118.019440 191.314804,122.072990 
	C188.657425,127.954720 184.814880,133.293274 181.598511,138.932343 
	C178.463028,144.429626 179.303772,146.726807 185.185013,149.354919 
	C186.702515,150.033020 188.423920,150.409317 189.728363,151.365356 
	C190.978210,152.281372 192.547592,153.691650 192.689331,155.021866 
	C193.195328,159.770477 193.152618,164.577469 193.321472,169.362244 
	C193.338837,169.853745 193.186310,170.516403 193.443390,170.809662 
	C197.686371,175.649582 196.614258,181.759521 197.555664,187.403534 
	C198.202728,191.282791 200.818787,193.864548 204.663361,194.045715 
	C211.441193,194.365067 218.278503,194.479019 225.031464,193.937546 
	C230.500305,193.499023 233.438766,195.372269 234.960159,200.574051 
	C237.104721,207.906509 240.019775,215.031647 241.830719,222.434921 
	C242.575195,225.478439 241.303909,229.015015 240.948837,232.334000 
	C207.820770,227.375092 164.056015,197.114731 160.513641,140.971725 
	C157.509552,93.360062 188.497711,51.997196 233.032822,39.448074 
	C278.779572,26.557539 327.191132,48.611832 348.365417,91.654129 
	C370.154938,135.947083 354.777771,183.900269 325.456299,208.882584 
	C308.370850,192.712540 306.474792,172.791763 311.725494,151.452911 
	C313.416382,144.581207 316.896301,138.149719 320.069397,131.053467 
	C321.047089,129.050781 321.513184,127.511482 321.979279,125.972176 
	C321.979279,125.972176 322.003723,125.993294 322.286621,125.770981 
	C323.053131,123.044197 323.536774,120.539742 324.020416,118.035278 
	C324.020416,118.035278 323.993713,118.013756 324.290161,117.744873 
	C326.356903,110.263611 327.393768,103.068810 324.071259,95.978516 
	C324.071259,95.978516 324.005096,95.955063 324.038269,95.571548 
	C323.711060,94.126808 323.350647,93.065575 322.990234,92.004341 
z"/>
<path fill="#82CEFD" opacity="1.000000" stroke="none" 
	d="
M289.008301,296.748901 
	C285.114105,301.142303 281.360901,305.177856 276.884338,309.991180 
	C280.969635,316.994751 285.858276,325.375519 291.319397,334.737732 
	C285.490265,334.737732 280.435181,334.910309 275.410400,334.596832 
	C274.364746,334.531586 273.186646,332.808929 272.488586,331.606781 
	C269.481842,326.428772 266.693787,321.124115 263.708130,315.933411 
	C259.740143,309.034851 259.322906,308.909821 250.022400,310.670807 
	C250.022400,318.431671 250.022400,326.328308 250.022400,334.787659 
	C245.620361,334.787659 241.799789,335.064362 238.065598,334.618103 
	C236.953781,334.485199 235.240021,332.331116 235.229675,331.091248 
	C235.055969,310.266968 235.066193,289.440430 235.225937,268.615906 
	C235.234665,267.475647 236.898026,265.372284 237.807968,265.363007 
	C249.117477,265.247772 260.598328,264.255066 271.701447,265.834137 
	C287.309113,268.053864 293.959381,280.889984 289.008301,296.748901 
M261.360138,297.026428 
	C264.143860,296.689667 267.083649,296.806335 269.676147,295.914001 
	C273.984192,294.431122 275.572418,290.979370 275.113312,286.425201 
	C274.705566,282.380798 272.471710,279.528839 268.738434,279.190033 
	C262.708008,278.642822 256.591553,279.042877 250.503357,279.042877 
	C250.503357,285.350525 250.503357,291.043793 250.503357,297.026581 
	C254.103867,297.026581 257.255066,297.026581 261.360138,297.026428 
z"/>
<path fill="#82CEFD" opacity="1.000000" stroke="none" 
	d="
M211.754333,282.074524 
	C205.840469,278.419617 199.664993,277.428711 193.238876,278.005585 
	C190.117218,278.285828 187.413193,279.510468 186.879471,283.211273 
	C186.351456,286.872742 188.600525,288.284149 191.574112,289.123230 
	C196.204773,290.429901 200.849670,291.686737 205.472382,293.020660 
	C207.700439,293.663574 209.966248,294.261383 212.086731,295.176727 
	C221.654449,299.306793 226.308029,305.644470 225.961975,313.845703 
	C225.533813,323.993164 220.119614,331.011993 209.760818,334.086365 
	C197.328430,337.776215 185.470901,336.203583 174.502960,329.142181 
	C168.860779,325.509674 168.758850,324.789886 172.450607,319.462555 
	C173.832626,317.468262 175.377289,315.586731 177.142197,313.266846 
	C184.251404,319.722961 192.056427,323.000793 201.179214,322.043549 
	C203.394485,321.811066 205.847824,321.159180 207.616791,319.895416 
	C211.915497,316.824341 211.191513,311.599579 206.191879,309.901215 
	C200.389465,307.930176 194.398575,306.511383 188.482590,304.877899 
	C176.963867,301.697479 170.806244,294.692291 171.147507,284.781372 
	C171.396194,277.558472 174.990585,272.099365 181.131393,268.538025 
	C194.324615,260.886688 212.230698,263.269623 223.973969,274.328583 
	C221.497711,277.712433 218.978531,281.154938 216.246841,284.887848 
	C214.779709,283.976471 213.417252,283.130096 211.754333,282.074524 
z"/>
<path fill="#83CEFC" opacity="1.000000" stroke="none" 
	d="
M316.051208,282.201233 
	C316.199921,294.617645 314.499603,292.786224 326.419006,292.923584 
	C332.582703,292.994598 338.753296,293.089813 344.910309,292.874878 
	C348.234894,292.758820 349.402954,293.971497 349.149628,297.203796 
	C348.943970,299.828339 349.107880,302.481842 349.107880,305.683594 
	C338.107697,305.683594 327.521362,305.683594 316.044434,305.683594 
	C316.044434,313.128876 316.142487,320.048615 315.993042,326.963074 
	C315.938202,329.500702 315.667175,334.065948 314.861816,334.211823 
	C310.857666,334.937042 306.632751,334.625885 302.512909,334.316040 
	C301.951019,334.273773 301.129333,332.190674 301.124695,331.049652 
	C301.040314,310.390472 301.004272,289.730286 301.201569,269.072632 
	C301.214020,267.766418 303.203461,265.369232 304.304352,265.350891 
	C319.264648,265.101593 334.230530,265.183289 349.598267,265.183289 
	C349.598267,269.811676 349.598267,274.010681 349.598267,278.892578 
	C339.836761,278.892578 330.229736,278.867035 320.623047,278.913269 
	C318.605042,278.922974 315.951599,278.173523 316.051208,282.201233 
z"/>
<path fill="#2398CE" opacity="1.000000" stroke="none" 
	d="
M291.279968,113.310669 
	C293.259033,115.123177 295.238129,116.935684 297.217194,118.748192 
	C297.276184,119.479767 297.335175,120.211334 297.394165,120.942909 
	C301.376984,116.538666 305.693451,112.377213 309.167542,107.602814 
	C310.439911,105.854202 309.713776,102.652298 309.901978,100.113571 
	C310.055969,98.035973 309.893494,95.842667 310.576630,93.956062 
	C310.767151,93.429955 313.799591,93.228554 314.941223,93.890564 
	C317.748383,95.518402 317.113342,97.981140 315.576385,100.336197 
	C315.319733,100.729424 315.122620,101.323227 315.214111,101.757774 
	C316.624603,108.455132 312.007141,111.991219 307.991974,115.965385 
	C298.051575,125.804207 288.320862,135.856812 278.286377,145.597336 
	C275.522705,148.280045 274.568542,151.029984 274.590179,154.787247 
	C274.729919,179.096359 274.661652,203.406662 274.661591,227.716583 
	C274.661591,228.715622 274.957642,229.841385 274.596161,230.685623 
	C273.966644,232.155853 272.931671,233.452438 272.066650,234.821823 
	C271.356720,233.532745 270.031189,232.245819 270.026642,230.954254 
	C269.906464,196.820969 269.887115,162.687057 270.020599,128.553925 
	C270.027313,126.844193 271.199982,124.798157 272.442688,123.491852 
	C278.523834,117.099503 284.427948,110.450462 291.136658,104.768211 
	C297.864319,99.069923 296.455353,92.357803 295.588898,85.296761 
	C295.358765,83.421272 295.596832,81.100967 296.582703,79.630257 
	C297.061371,78.916138 300.791748,79.117920 301.236053,79.915527 
	C302.082001,81.434242 301.743103,83.682594 301.673798,85.620041 
	C301.615997,87.236389 300.827942,88.907799 301.074738,90.440247 
	C302.364960,98.451302 299.693085,104.655205 293.127625,109.322220 
	C292.196167,109.984344 291.504120,110.983276 290.286346,112.269005 
	C289.696106,113.048424 289.520844,113.385162 289.345551,113.721909 
	C289.990356,113.584824 290.635162,113.447746 291.279968,113.310669 
M283.389587,133.890854 
	C287.375183,130.040726 291.360809,126.190598 296.104706,121.607941 
	C289.022034,121.714874 274.206787,136.803757 275.123566,142.730087 
	C278.001892,139.638702 280.444977,137.014786 283.389587,133.890854 
M274.965149,127.481613 
	C274.836548,128.564484 274.707947,129.647339 274.482819,131.542526 
	C287.127014,120.306854 287.913422,119.300255 287.394531,114.956047 
	C283.307037,119.053322 279.366455,123.003334 274.965149,127.481613 
z"/>
<path fill="#2599CF" opacity="1.000000" stroke="none" 
	d="
M208.969620,98.941971 
	C208.142242,103.777214 210.592575,105.542740 215.055954,105.529091 
	C223.721481,105.502586 232.395081,105.319641 241.047592,105.656837 
	C243.401062,105.748543 246.180710,106.934540 247.919769,108.535934 
	C253.428101,113.608223 260.543762,118.272865 263.234955,124.689987 
	C265.920990,131.094910 264.108795,139.423309 264.114563,146.908539 
	C264.135498,174.071884 264.092804,201.235275 264.069336,228.398651 
	C264.068207,229.731186 264.276093,231.138565 263.913055,232.371674 
	C263.640381,233.297882 262.628479,234.612411 261.906891,234.637482 
	C261.117096,234.664932 259.844482,233.548508 259.568237,232.680466 
	C259.130371,231.304550 259.293274,229.720718 259.292847,228.224823 
	C259.284882,199.563034 259.237640,170.901031 259.361847,142.239777 
	C259.376709,138.812454 258.756104,136.043015 255.935638,133.962128 
	C255.405426,133.570938 254.918472,133.079315 254.526154,132.549225 
	C247.824585,123.493973 239.405685,118.774536 227.671234,120.751579 
	C225.145981,121.177040 222.032700,119.431900 219.535477,118.058830 
	C218.527100,117.504387 217.887070,115.170082 218.117477,113.823357 
	C218.302200,112.743744 220.022461,111.230881 221.119888,111.180229 
	C222.479996,111.117462 224.843597,112.100006 225.123154,113.094803 
	C226.066696,116.452522 228.359543,116.559433 230.867325,116.130760 
	C240.667648,114.455521 248.327225,117.719315 254.021484,125.798637 
	C255.166260,127.422928 256.360199,129.012558 257.531464,130.618179 
	C258.171539,130.182114 258.811584,129.746063 259.451630,129.309998 
	C258.715973,127.636101 258.348297,125.623993 257.177490,124.349991 
	C253.234238,120.059090 249.127808,115.895515 244.811020,111.984291 
	C243.516022,110.810951 241.341537,110.109375 239.549789,110.068123 
	C231.055939,109.872543 222.536316,109.637291 214.063431,110.101631 
	C208.527420,110.405022 205.935287,105.620522 201.551804,104.061935 
	C200.961456,103.852036 200.534805,100.625496 201.134567,100.130013 
	C202.614243,98.907585 204.734634,98.460709 206.809891,97.346199 
	C207.022324,96.990334 206.974411,96.965393 206.747971,97.314919 
	C207.359985,98.119385 208.198425,98.574326 209.023956,99.004456 
	C209.011032,98.979630 208.969620,98.941971 208.969620,98.941971 
z"/>
<path fill="#2B9BCF" opacity="1.000000" stroke="none" 
	d="
M321.733826,126.220810 
	C321.513184,127.511482 321.047089,129.050781 320.303345,130.798019 
	C319.633942,130.430954 318.960632,129.320526 318.890656,129.357315 
	C313.987488,131.936020 309.350037,135.000549 303.261932,134.224777 
	C302.036469,134.068619 300.571045,136.424423 299.101166,137.458466 
	C287.109009,145.895004 283.573303,157.192413 284.586121,171.771317 
	C285.887299,190.500854 284.887360,209.390335 284.872833,228.210922 
	C284.871826,229.542694 285.127655,230.983093 284.703705,232.173386 
	C284.334198,233.210831 283.172607,233.966141 282.361023,234.846115 
	C281.627594,233.888641 280.625549,233.027466 280.237885,231.946030 
	C279.865936,230.908417 280.118469,229.642426 280.118042,228.476791 
	C280.108521,203.660263 280.016327,178.843002 280.228149,154.028351 
	C280.249207,151.562729 281.626160,148.695602 283.250305,146.744461 
	C286.432739,142.921387 290.262177,139.641327 293.770477,136.083908 
	C297.723938,132.075058 301.248322,127.519836 308.093842,128.906021 
	C309.156097,129.121124 310.721985,126.653412 312.112946,125.496010 
	C313.516968,124.327682 315.022034,122.352081 316.428925,122.397552 
	C317.644684,122.436852 318.741821,124.858360 319.989319,126.130821 
	C320.290619,126.438156 320.978333,126.366707 321.733826,126.220810 
z"/>
<path fill="#1E97CF" opacity="1.000000" stroke="none" 
	d="
M234.101959,64.966812 
	C242.752838,73.470772 251.419708,81.958595 260.041443,90.492027 
	C261.813049,92.245476 263.415955,94.169365 265.162628,96.087158 
	C270.609528,92.359940 274.009003,88.311127 273.017029,81.511505 
	C272.446167,77.598320 272.958496,73.533173 272.900635,69.537636 
	C272.816345,63.717312 269.373718,61.468414 263.934662,63.189877 
	C262.522339,63.636879 260.219513,63.192844 259.163025,62.234741 
	C258.313934,61.464752 258.052795,58.745655 258.752197,57.891479 
	C259.669159,56.771534 261.950653,55.905659 263.354736,56.221584 
	C266.601837,56.952175 269.934723,58.033073 272.754333,59.755299 
	C276.710205,62.171562 278.369415,66.000366 277.669006,70.843819 
	C277.291626,73.453537 277.153381,76.254639 277.678528,78.810944 
	C279.964447,89.938599 273.562653,96.432045 265.461182,102.381538 
	C254.664597,91.610161 243.834412,80.816788 233.017960,70.009659 
	C226.866913,63.863918 223.023605,64.573479 219.299591,72.494209 
	C218.837769,73.476456 217.938110,74.252853 216.521454,75.096359 
	C215.033051,75.040970 214.264587,75.013870 213.496109,74.986771 
	C210.930222,73.323524 210.529205,71.220985 212.112396,68.327156 
	C212.005630,67.960190 212.005859,68.003181 212.339050,68.142578 
	C215.209869,66.601189 217.917343,65.124657 220.243790,63.189930 
	C223.431381,60.539024 228.632050,60.236698 232.140533,63.189064 
	C232.864456,63.973400 233.483215,64.470100 234.101959,64.966812 
z"/>
<path fill="#1796D0" opacity="1.000000" stroke="none" 
	d="
M295.410278,164.030823 
	C295.410156,185.855087 295.412231,207.183701 295.406097,228.512329 
	C295.405701,229.843719 295.619995,231.268661 295.214966,232.475769 
	C294.910889,233.381943 293.772461,234.008148 293.005524,234.759003 
	C292.308380,233.976364 291.361969,233.296066 290.986328,232.381378 
	C290.632843,231.520706 290.867554,230.412811 290.867004,229.413651 
	C290.853546,205.085709 290.837891,180.757767 290.836304,156.429825 
	C290.835907,150.409515 293.323761,147.748581 299.167816,147.107071 
	C300.759460,146.932343 302.306488,145.747040 303.839142,145.814728 
	C305.270508,145.877945 307.099060,146.654922 307.920197,147.744949 
	C308.573456,148.612106 308.456238,150.758865 307.791412,151.725998 
	C307.106812,152.721909 305.273438,153.597397 304.066345,153.457626 
	C295.404602,152.454712 295.414581,152.368332 295.410919,161.035706 
	C295.410553,161.868866 295.410706,162.702011 295.410278,164.030823 
z"/>
<path fill="#289ACF" opacity="1.000000" stroke="none" 
	d="
M207.040131,97.010643 
	C205.896713,96.023796 204.642593,95.103523 203.598297,93.987000 
	C202.353592,92.656242 200.536789,91.227211 200.395386,89.707878 
	C200.291245,88.589066 202.490692,86.254677 203.642242,86.268333 
	C205.151489,86.286217 207.270966,87.748672 208.023087,89.173172 
	C210.692917,94.229683 213.864059,97.519310 220.302841,97.113899 
	C228.261765,96.612762 236.284393,97.206100 244.263138,96.900055 
	C247.967255,96.757973 250.497513,97.960556 252.918732,100.613831 
	C257.168793,105.271248 261.716064,109.657425 266.782379,114.811913 
	C267.741425,112.806778 268.143677,111.259041 269.083710,110.179665 
	C270.253571,108.836388 271.748688,107.296211 273.333832,106.973618 
	C274.295044,106.777992 276.542999,108.619194 276.681091,109.734940 
	C276.859039,111.172714 275.877319,113.202721 274.733063,114.263618 
	C272.222595,116.591148 269.295532,118.469368 266.212585,120.774826 
	C260.949768,115.465881 255.724716,109.872780 250.100830,104.714523 
	C248.371307,103.128197 245.578232,102.004257 243.226303,101.917946 
	C234.415329,101.594582 225.578568,101.978661 216.767090,101.662430 
	C214.386398,101.576981 212.060791,99.956909 209.339752,98.991608 
	C208.969620,98.941971 209.011032,98.979630 209.016144,98.674789 
	C208.338974,97.901756 207.656693,97.433571 206.974411,96.965393 
	C206.974411,96.965393 207.022324,96.990334 207.040131,97.010643 
z"/>
<path fill="#2299CF" opacity="1.000000" stroke="none" 
	d="
M213.381683,75.378525 
	C214.264587,75.013870 215.033051,75.040970 216.188751,75.097107 
	C215.839752,75.455307 215.103546,75.784462 214.369095,76.112831 
	C220.100922,87.463951 220.327927,87.591515 234.244644,85.864815 
	C231.646286,83.952652 228.918655,82.187691 226.503799,80.066597 
	C225.285202,78.996239 224.090912,77.343536 223.916275,75.834854 
	C223.800369,74.833473 225.347931,72.939323 226.444092,72.678856 
	C227.752548,72.367950 229.879074,72.912003 230.775131,73.889114 
	C235.319321,78.844360 239.581802,84.058105 243.935699,89.187462 
	C244.432175,89.772362 244.883133,90.395889 245.997757,91.825783 
	C237.219406,91.825783 229.320389,91.946930 221.431992,91.711845 
	C220.045441,91.670517 218.611847,90.252464 217.363159,89.264069 
	C215.680328,87.932053 214.107803,86.448784 212.576370,84.940643 
	C210.976990,83.365608 209.482529,81.684044 207.942215,80.049049 
	C209.717239,78.622795 211.492249,77.196541 213.381683,75.378525 
z"/>
<path fill="#229AD1" opacity="1.000000" stroke="none" 
	d="
M234.243393,64.588020 
	C233.483215,64.470100 232.864456,63.973400 232.498535,63.073593 
	C233.514038,60.432476 234.276688,58.194462 235.039337,55.956451 
	C235.039337,55.956448 235.045517,56.017971 235.018280,56.031670 
	C241.413116,56.599049 247.249939,57.757107 252.013107,63.153618 
	C256.502930,68.240417 262.336212,72.124779 267.390839,76.743492 
	C268.422607,77.686279 269.181427,79.607109 269.026031,80.957405 
	C268.899109,82.060127 267.300110,83.686577 266.210785,83.809074 
	C264.864502,83.960472 262.963348,83.173141 262.007385,82.139168 
	C256.555664,76.242729 251.435791,70.035843 245.893280,64.230255 
	C244.845032,63.132240 242.395218,63.038258 240.603180,63.071857 
	C238.524002,63.110840 236.457077,63.801464 234.243393,64.588020 
z"/>
<path fill="#2699CF" opacity="1.000000" stroke="none" 
	d="
M285.344330,67.330818 
	C288.723694,67.178055 290.535522,68.633728 290.369110,71.691803 
	C289.977814,78.883003 290.090454,86.214905 288.600464,93.191139 
	C287.686401,97.470947 284.373169,101.334999 281.650696,105.026901 
	C281.245819,105.575935 278.158844,104.147156 276.312714,103.633377 
	C276.901459,101.788033 277.081573,98.651398 278.147522,98.314056 
	C283.657196,96.570488 284.603455,92.741745 284.087616,87.842850 
	C283.541962,82.661278 282.779755,77.485733 282.610840,72.291351 
	C282.559174,70.701584 284.152222,69.058334 285.344330,67.330818 
z"/>
<path fill="#2B9BCF" opacity="1.000000" stroke="none" 
	d="
M324.046112,96.448898 
	C327.393768,103.068810 326.356903,110.263611 324.306702,117.740738 
	C324.024811,110.976753 324.022888,103.948021 324.046112,96.448898 
z"/>
<path fill="#2B9BCF" opacity="1.000000" stroke="none" 
	d="
M323.819977,118.336403 
	C323.536774,120.539742 323.053131,123.044197 322.271179,125.769547 
	C322.521729,123.539467 323.070648,121.088493 323.819977,118.336403 
z"/>
<path fill="#2B9BCF" opacity="1.000000" stroke="none" 
	d="
M322.973022,92.351288 
	C323.350647,93.065575 323.711060,94.126808 324.063232,95.546875 
	C323.688568,94.836548 323.322174,93.767395 322.973022,92.351288 
z"/>
<path fill="#FEFFFF" opacity="1.000000" stroke="none" 
	d="
M234.648102,55.823875 
	C234.276688,58.194462 233.514038,60.432476 232.393372,62.785957 
	C228.632050,60.236698 223.431381,60.539024 220.243790,63.189930 
	C217.917343,65.124657 215.209869,66.601189 212.318100,68.136314 
	C212.632309,66.814178 213.015518,65.026474 214.015167,64.560074 
	C220.688950,61.446377 227.494263,58.614616 234.648102,55.823875 
z"/>
<path fill="#FDFDFD" opacity="1.000000" stroke="none" 
	d="
M260.883209,297.026489 
	C257.255066,297.026581 254.103867,297.026581 250.503357,297.026581 
	C250.503357,291.043793 250.503357,285.350525 250.503357,279.042877 
	C256.591553,279.042877 262.708008,278.642822 268.738434,279.190033 
	C272.471710,279.528839 274.705566,282.380798 275.113312,286.425201 
	C275.572418,290.979370 273.984192,294.431122 269.676147,295.914001 
	C267.083649,296.806335 264.143860,296.689667 260.883209,297.026489 
z"/>
<path fill="#DBE6EB" opacity="1.000000" stroke="none" 
	d="
M283.138824,134.140869 
	C280.444977,137.014786 278.001892,139.638702 275.123566,142.730087 
	C274.206787,136.803757 289.022034,121.714874 296.104706,121.607941 
	C291.360809,126.190598 287.375183,130.040726 283.138824,134.140869 
z"/>
<path fill="#E6ECEF" opacity="1.000000" stroke="none" 
	d="
M275.195526,127.217476 
	C279.366455,123.003334 283.307037,119.053322 287.394531,114.956047 
	C287.913422,119.300255 287.127014,120.306854 274.482819,131.542526 
	C274.707947,129.647339 274.836548,128.564484 275.195526,127.217476 
z"/>
<path fill="#FEFFFF" opacity="1.000000" stroke="none" 
	d="
M291.052307,113.066406 
	C290.635162,113.447746 289.990356,113.584824 289.345551,113.721909 
	C289.520844,113.385162 289.696106,113.048424 290.099854,112.543518 
	C290.493744,112.524300 290.659210,112.673233 291.052307,113.066406 
z"/>
<path fill="#FEFFFF" opacity="1.000000" stroke="none" 
	d="
M206.747971,97.314911 
	C207.656693,97.433571 208.338974,97.901756 209.029053,98.699608 
	C208.198425,98.574326 207.359985,98.119385 206.747971,97.314911 
z"/>
</svg>