<?xml version="1.0" standalone="no"?>
<!DOCTYPE svg PUBLIC "-//W3C//DTD SVG 20010904//EN"
 "http://www.w3.org/TR/2001/REC-SVG-20010904/DTD/svg10.dtd">
<svg version="1.0" xmlns="http://www.w3.org/2000/svg"
 width="500.000000pt" height="500.000000pt" viewBox="0 0 500.000000 500.000000"
 preserveAspectRatio="xMidYMid meet">

<g transform="translate(0.000000,500.000000) scale(0.100000,-0.100000)"
fill="#000000" stroke="none">
<path d="M2290 4065 c-194 -27 -339 -73 -520 -167 -140 -73 -249 -149 -353
-248 -410 -388 -582 -960 -455 -1514 112 -488 467 -906 933 -1097 198 -81 393
-119 610 -119 749 0 1386 518 1545 1256 27 125 38 404 21 526 -70 488 -348
912 -755 1152 -77 45 -221 113 -296 139 -219 77 -497 104 -730 72z m87 -798
c-1 -45 -3 -5 -3 88 0 94 2 130 3 82 2 -48 2 -125 0 -170z m450 231 c-3 -8 -6
-5 -6 6 -1 11 2 17 5 13 3 -3 4 -12 1 -19z m-854 -53 c-3 -9 -8 -14 -10 -11
-3 3 -2 9 2 15 9 16 15 13 8 -4z m844 -117 c-2 -24 -4 -5 -4 42 0 47 2 66 4
43 2 -24 2 -62 0 -85z m-860 70 c-3 -8 -6 -5 -6 6 -1 11 2 17 5 13 3 -3 4 -12
1 -19z m670 0 c-3 -8 -6 -5 -6 6 -1 11 2 17 5 13 3 -3 4 -12 1 -19z m-597
-112 c0 -2 -8 -10 -17 -17 -16 -13 -17 -12 -4 4 13 16 21 21 21 13z m185 -5
c3 -5 2 -12 -3 -15 -5 -3 -9 1 -9 9 0 17 3 19 12 6z m395 -48 c18 -26 25 -41
17 -34 -16 13 -60 81 -52 81 2 0 18 -21 35 -47z m197 -30 c-2 -16 -4 -5 -4 22
0 28 2 40 4 28 2 -13 2 -35 0 -50z m-827 12 c14 -19 14 -19 -2 -6 -10 7 -18
18 -18 24 0 6 1 8 3 6 1 -2 9 -13 17 -24z m803 -759 c39 -17 92 -71 106 -109
17 -43 13 -117 -8 -163 -36 -79 -140 -129 -219 -106 -94 29 -153 101 -154 192
0 50 29 126 56 150 57 46 156 63 219 36z"/>
</g>
</svg>
